<svg version="1.1" id="Layer_1" xmlns="http://www.w3.org/2000/svg" xmlns:xlink="http://www.w3.org/1999/xlink" x="0px" y="0px"
	 width="100%" viewBox="0 0 1510 2048" enable-background="new 0 0 1510 2048" xml:space="preserve">
<path fill="#000000" opacity="1.000000" stroke="none" 
	d="
M1511.000000,1275.000000 
	C1511.000000,1468.029419 1511.000000,1661.058716 1510.640747,1854.560303 
	C1507.345093,1858.693115 1504.822144,1862.807007 1501.397705,1865.932983 
	C1489.231934,1877.037476 1475.711792,1886.472778 1461.203979,1894.112061 
	C1447.040894,1901.569946 1432.317749,1908.075806 1417.477051,1914.104858 
	C1402.000732,1920.392212 1386.184814,1925.892944 1370.340332,1931.209351 
	C1357.252441,1935.600830 1343.965698,1939.435791 1330.659180,1943.128418 
	C1315.437256,1947.352661 1300.114258,1951.218506 1284.801392,1955.107056 
	C1271.524658,1958.478394 1258.274048,1962.012085 1244.877686,1964.837280 
	C1230.173096,1967.938232 1215.302124,1970.242554 1200.528564,1973.026855 
	C1192.500488,1974.539673 1184.569458,1976.601685 1176.514893,1977.933472 
	C1161.501831,1980.415894 1146.426392,1982.520508 1131.384644,1984.832153 
	C1122.644043,1986.175415 1113.935303,1987.736206 1105.180542,1988.974976 
	C1097.709717,1990.031982 1090.192993,1990.762207 1082.697876,1991.648682 
	C1070.475098,1993.094116 1058.255615,1994.567627 1046.030518,1995.992310 
	C1039.664673,1996.734375 1033.291626,1997.416870 1026.918213,1998.092163 
	C1014.502625,1999.407959 1002.088379,2000.738770 989.665283,2001.980469 
	C984.906616,2002.456299 980.120361,2002.649170 975.355286,2003.068848 
	C960.766724,2004.353760 946.189026,2005.768555 931.593262,2006.963013 
	C924.839355,2007.515747 918.051025,2007.637451 911.282349,2008.024658 
	C906.340637,2008.307129 901.403564,2008.678345 896.467896,2009.055054 
	C879.377441,2010.359375 862.307312,2012.073853 845.194153,2012.902466 
	C823.171265,2013.968872 801.115112,2014.361450 779.071655,2014.985107 
	C765.135986,2015.379395 751.196106,2015.991577 737.260315,2015.936035 
	C701.826416,2015.794922 666.393066,2015.388062 630.960938,2014.970337 
	C618.187927,2014.819824 605.419678,2014.299805 592.647888,2014.009888 
	C576.378601,2013.640503 560.106689,2013.382446 543.838318,2012.980957 
	C534.397644,2012.748047 524.959229,2012.381592 515.524475,2011.969727 
	C510.580353,2011.754028 505.646271,2011.310181 500.707550,2010.970703 
	C481.453094,2009.646851 462.197662,2008.336670 442.944733,2006.990601 
	C438.176727,2006.657227 433.407166,2006.298218 428.655060,2005.793335 
	C417.223969,2004.578613 405.813080,2003.166382 394.374207,2002.034424 
	C385.684479,2001.174438 376.928528,2000.918579 368.264984,1999.872681 
	C350.852722,1997.770508 333.481140,1995.329590 316.097382,1992.994019 
	C306.518250,1991.706909 296.946716,1990.362549 287.375244,1989.018921 
	C282.372559,1988.316528 277.377441,1987.560303 272.378876,1986.828369 
	C272.166992,1987.551025 271.955109,1988.273560 271.743225,1988.996216 
	C281.997101,1993.652100 291.954468,1999.194824 302.577393,2002.746948 
	C316.908539,2007.538940 331.743469,2010.830933 346.379028,2014.703125 
	C353.324799,2016.540771 360.239716,2018.609741 367.291077,2019.909424 
	C380.952148,2022.427246 394.701447,2024.465332 408.411102,2026.721069 
	C416.972015,2028.129639 425.499756,2029.775879 434.093170,2030.940186 
	C441.908783,2031.999512 449.810638,2032.408203 457.642975,2033.361938 
	C469.362335,2034.788818 481.031891,2036.644409 492.764862,2037.933350 
	C501.772125,2038.922729 510.850128,2039.251221 519.886658,2039.994995 
	C535.479004,2041.277954 551.045166,2042.956543 566.656433,2043.910889 
	C583.511292,2044.941162 600.404175,2045.361694 617.282715,2045.989136 
	C627.885132,2046.383301 638.493896,2046.618286 649.092712,2047.086304 
	C650.088074,2047.130249 651.032166,2048.334473 652.000000,2049.000000 
	C435.106964,2049.000000 218.213928,2049.000000 1.000000,2049.000000 
	C1.000000,1987.637695 1.000000,1926.274780 1.288848,1864.145508 
	C6.800427,1873.176392 15.481838,1879.913574 24.824533,1884.431519 
	C36.896324,1890.269165 50.148186,1893.701050 62.964958,1897.948486 
	C68.845856,1899.897461 74.811722,1901.846069 80.894585,1902.877686 
	C94.938751,1905.259644 109.089584,1907.004883 123.175529,1909.150391 
	C139.843903,1911.689209 156.478348,1914.451294 173.149246,1916.972900 
	C182.871811,1918.443359 192.635193,1919.645508 202.383347,1920.944946 
	C210.189621,1921.985596 217.991409,1923.069092 225.812164,1923.989258 
	C232.997330,1924.834595 240.222397,1925.350586 247.399109,1926.255859 
	C259.109711,1927.732910 270.777679,1929.557983 282.498566,1930.939819 
	C288.723175,1931.673706 295.049835,1931.530029 301.280151,1932.230103 
	C313.996613,1933.658936 326.659241,1935.576050 339.382141,1936.935425 
	C348.559967,1937.916138 357.808594,1938.213623 367.009369,1939.004883 
	C385.544678,1940.598999 404.053436,1942.526855 422.602783,1943.923462 
	C436.122681,1944.941162 449.693207,1945.271240 463.235260,1946.015381 
	C473.620209,1946.585938 483.992096,1947.394653 494.376831,1947.970581 
	C507.752838,1948.712280 521.129211,1949.564209 534.517456,1949.941040 
	C554.117554,1950.492554 573.729370,1950.989624 593.334534,1950.934326 
	C640.773987,1950.800415 688.213074,1950.389282 735.651245,1949.973633 
	C754.925720,1949.804688 774.202209,1949.494629 793.468872,1948.939819 
	C805.024963,1948.607056 816.561279,1947.629761 828.110962,1947.026611 
	C848.094849,1945.983032 868.086182,1945.077026 888.066284,1943.966919 
	C896.954956,1943.473145 905.829224,1942.686279 914.700439,1941.920776 
	C929.293396,1940.661499 943.883057,1939.359497 958.464905,1937.978149 
	C965.171082,1937.342896 971.856873,1936.488770 978.549438,1935.713135 
	C989.148682,1934.484741 999.746826,1933.247925 1010.343262,1931.995605 
	C1015.065857,1931.437500 1019.796631,1930.925537 1024.499390,1930.228027 
	C1033.574463,1928.882080 1042.612427,1927.274536 1051.701416,1926.036865 
	C1067.464600,1923.890259 1083.291260,1922.186279 1099.022339,1919.835327 
	C1111.951660,1917.902832 1124.808472,1915.442749 1137.648193,1912.961670 
	C1155.760010,1909.461914 1173.855591,1905.865112 1191.901489,1902.042603 
	C1203.390137,1899.609253 1214.828613,1896.894409 1226.195312,1893.942993 
	C1242.269653,1889.769531 1258.340210,1885.542236 1274.257202,1880.815063 
	C1289.706177,1876.227295 1305.037476,1871.205688 1320.265991,1865.928467 
	C1328.237061,1863.166382 1335.954834,1859.619385 1343.646118,1856.117676 
	C1354.289185,1851.272339 1365.002930,1846.515137 1375.297485,1840.995117 
	C1382.587402,1837.086060 1389.161987,1831.863281 1396.184448,1827.430420 
	C1406.468994,1820.938110 1414.148560,1812.343384 1419.404541,1801.288330 
	C1424.347534,1790.891479 1421.711792,1781.656982 1415.565674,1773.268799 
	C1409.413696,1764.872681 1400.937012,1758.885010 1391.579224,1754.326782 
	C1389.710083,1753.416260 1387.454712,1753.298462 1385.377441,1752.815186 
	C1385.131958,1753.211548 1384.886475,1753.607910 1384.640991,1754.004272 
	C1386.062744,1756.474854 1387.349243,1759.035889 1388.930298,1761.399902 
	C1394.772461,1770.134521 1396.078735,1779.911255 1391.698608,1788.987427 
	C1386.561523,1799.632324 1377.332275,1807.431885 1367.122437,1813.153320 
	C1357.398438,1818.602661 1347.059814,1823.168701 1336.582520,1827.007202 
	C1323.156128,1831.926392 1309.450684,1836.219604 1295.626587,1839.880493 
	C1280.812988,1843.803589 1265.722290,1846.681152 1250.751587,1850.010376 
	C1243.255615,1851.677368 1235.812256,1853.663208 1228.248535,1854.926270 
	C1213.875488,1857.326660 1199.424194,1859.255615 1185.022095,1861.487793 
	C1175.966797,1862.891357 1166.962891,1864.634155 1157.896973,1865.957642 
	C1150.107666,1867.094604 1142.266724,1867.885498 1134.442017,1868.770630 
	C1124.646362,1869.878906 1114.843506,1870.924072 1105.044312,1872.001831 
	C1098.183350,1872.756348 1091.319702,1873.489624 1084.463623,1874.286621 
	C1074.028076,1875.499634 1063.614868,1876.934448 1053.160522,1877.948608 
	C1043.641113,1878.872070 1034.076782,1879.322021 1024.537354,1880.048950 
	C1007.613098,1881.338745 990.695435,1882.716675 973.769653,1883.986694 
	C963.730164,1884.739990 953.674438,1885.278809 943.636719,1886.053345 
	C927.372986,1887.308594 911.135193,1888.973267 894.854736,1889.920044 
	C877.329102,1890.939209 859.766357,1891.317139 842.220825,1891.999512 
	C825.507263,1892.649658 808.795959,1893.361450 792.081543,1893.988403 
	C781.644043,1894.380005 771.204529,1894.764648 760.762390,1894.976196 
	C740.657654,1895.383423 720.550110,1895.949829 700.444275,1895.927368 
	C676.004578,1895.900146 651.564697,1895.373657 627.126221,1894.984741 
	C611.018799,1894.728638 594.912476,1894.376709 578.807678,1893.986450 
	C568.365967,1893.733398 557.924561,1893.410889 547.488708,1892.982300 
	C533.106140,1892.391357 518.732544,1891.568848 504.348022,1891.036011 
	C491.413696,1890.557007 478.467834,1890.396851 465.531067,1889.973022 
	C459.420380,1889.772705 453.306030,1889.432983 447.216248,1888.896484 
	C433.450775,1887.683716 419.708649,1886.200928 405.938873,1885.044312 
	C398.688141,1884.435303 391.363892,1884.614136 384.135315,1883.847778 
	C371.084991,1882.464600 358.088623,1880.579834 345.055267,1879.025391 
	C339.338135,1878.343506 333.548645,1878.212158 327.857178,1877.383545 
	C316.680145,1875.756470 305.566895,1873.693481 294.393494,1872.038818 
	C281.912506,1870.190430 269.324280,1868.986572 256.911957,1866.776611 
	C245.033447,1864.661743 233.300705,1861.700928 221.545639,1858.934570 
	C217.101730,1857.888794 212.792358,1856.283813 208.390762,1855.043457 
	C198.359421,1852.216553 188.209366,1849.766724 178.296631,1846.576294 
	C169.785965,1843.837158 161.627045,1840.016968 153.146896,1837.167969 
	C145.467743,1834.587769 139.069168,1830.253906 133.920135,1824.230957 
	C130.779709,1820.557617 129.741409,1816.315430 132.751068,1811.528931 
	C136.218475,1806.014404 140.361420,1801.152466 145.792236,1797.768799 
	C153.707764,1792.836792 161.772293,1788.015869 170.206833,1784.075562 
	C182.247559,1778.450684 194.542038,1773.295288 206.989410,1768.637573 
	C217.033142,1764.879272 227.467621,1762.167358 237.719864,1758.962769 
	C240.682648,1758.036743 243.551422,1756.698730 246.572159,1756.088867 
	C258.570648,1753.666626 270.573700,1751.222046 282.650635,1749.248169 
	C291.556396,1747.792725 300.571655,1746.981079 309.553192,1746.024658 
	C315.411499,1745.400879 321.296936,1745.031616 328.655640,1744.426025 
	C325.839081,1742.338623 324.075470,1740.454346 321.903290,1739.518188 
	C310.484131,1734.597290 298.320557,1732.614136 286.048431,1732.148071 
	C275.803406,1731.758911 265.477600,1732.275391 255.244797,1733.100586 
	C242.975494,1734.089966 230.719330,1735.516113 218.547241,1737.349243 
	C209.032349,1738.782104 199.560593,1740.757812 190.236465,1743.143921 
	C174.289627,1747.225220 158.418869,1751.631226 142.626846,1756.277222 
	C135.453735,1758.387451 128.505661,1761.295654 121.526207,1764.022827 
	C112.005623,1767.742798 102.500656,1771.512817 93.089142,1775.497925 
	C86.965073,1778.090820 80.975204,1781.015015 75.003807,1783.950562 
	C66.159637,1788.298584 57.121696,1792.343018 48.659519,1797.350342 
	C41.087269,1801.831055 33.944862,1807.140991 27.044191,1812.627686 
	C18.732649,1819.236084 10.532574,1826.066406 5.491775,1835.831055 
	C4.474399,1837.801758 2.521581,1839.289551 1.000019,1841.000000 
	C1.000000,1227.756958 1.000000,614.513977 1.000000,1.000000 
	C320.362671,1.000000 639.725403,1.000000 959.546265,1.406093 
	C961.552307,9.295712 962.675049,16.898373 964.731812,24.239332 
	C969.918091,42.749901 970.934082,61.812222 971.738281,80.760223 
	C972.374084,95.741539 970.449646,110.816536 970.058960,125.860245 
	C969.591125,143.872971 964.898682,161.012650 960.021179,178.142883 
	C959.487915,180.015640 958.629456,181.793427 958.030884,183.650421 
	C955.701599,190.877090 953.967712,198.354431 950.989075,205.299667 
	C946.197693,216.471436 940.808228,227.404373 935.266907,238.231201 
	C930.927185,246.710403 926.429871,255.177124 921.182678,263.106903 
	C914.215149,273.636475 906.583923,283.739014 898.984558,293.834320 
	C893.197205,301.522400 887.233643,309.102417 880.936523,316.373749 
	C876.337341,321.684570 871.051697,326.398865 866.100891,331.407623 
	C855.372375,342.261810 844.829529,353.306335 833.887634,363.940491 
	C826.227844,371.384918 818.123352,378.382904 810.051575,385.389252 
	C802.296082,392.121033 794.351379,398.636169 786.443665,405.190857 
	C781.100952,409.619507 775.604004,413.863983 770.310608,418.349670 
	C763.905884,423.776978 757.791443,429.554657 751.274902,434.839935 
	C745.434021,439.577118 739.109253,443.713654 733.197632,448.368774 
	C726.934998,453.300201 721.048706,458.712891 714.743774,463.586426 
	C706.097595,470.269653 697.060791,476.450592 688.466980,483.197784 
	C677.720093,491.635345 667.276978,500.458984 656.657532,509.060150 
	C647.929504,516.129333 639.006653,522.964172 630.416870,530.195862 
	C624.865723,534.869385 619.788208,540.102600 614.447876,545.030090 
	C602.045105,556.474060 588.992432,567.292053 577.346313,579.458069 
	C562.540222,594.925232 548.724487,611.354248 534.768494,627.614685 
	C529.092041,634.228394 523.765076,641.225525 519.008911,648.523865 
	C513.396606,657.135986 508.151489,666.050781 503.542267,675.233459 
	C499.761536,682.765625 496.425995,690.683350 494.184937,698.787354 
	C491.016937,710.243469 487.202179,721.597351 487.787598,733.917236 
	C488.437500,747.593689 486.380920,761.576660 488.467133,774.964233 
	C491.439056,794.035278 496.633240,812.827026 505.071228,830.462341 
	C507.516296,835.572449 509.598328,840.857361 512.080933,845.947937 
	C515.910034,853.799500 519.537415,861.792603 523.993225,869.283813 
	C529.027771,877.747986 534.843262,885.751038 540.392822,893.904541 
	C546.913452,903.484741 553.257629,913.200317 560.148743,922.508972 
	C567.379883,932.276733 574.978394,941.790527 582.773193,951.117126 
	C589.016541,958.587280 595.755432,965.646484 602.351624,972.816956 
	C605.398315,976.129028 608.770630,979.147034 611.744446,982.519653 
	C616.477661,987.887512 620.785034,993.643005 625.675415,998.856628 
	C630.301086,1003.787964 635.552246,1008.126343 640.332214,1012.921082 
	C645.109680,1017.713379 649.567017,1022.823547 654.302856,1027.659058 
	C661.623962,1035.134033 669.057068,1042.499634 676.454407,1049.899780 
	C679.095154,1052.541504 681.702637,1055.222168 684.442261,1057.758667 
	C691.792908,1064.564209 699.215576,1071.292114 706.591736,1078.070312 
	C709.822266,1081.039062 712.983215,1084.083740 716.220947,1087.044556 
	C724.387207,1094.511963 732.564941,1101.966919 740.765625,1109.396484 
	C746.544128,1114.631714 752.367676,1119.817261 758.171143,1125.024902 
	C758.675903,1124.652222 759.180664,1124.279663 759.685425,1123.906982 
	C757.782410,1119.693848 756.039917,1115.398926 753.942749,1111.284790 
	C749.684204,1102.930176 745.390625,1094.585571 740.807800,1086.406982 
	C737.718140,1080.893188 734.136414,1075.652588 730.720886,1070.324341 
	C728.729004,1067.216919 726.574768,1064.213379 724.592224,1061.100098 
	C720.016357,1053.914917 715.699280,1046.556030 710.903931,1039.521973 
	C706.228455,1032.663574 700.897217,1026.253174 696.194397,1019.412109 
	C687.377869,1006.586670 678.750671,993.629456 670.150940,980.656738 
	C662.547729,969.187256 655.033142,957.658020 647.587402,946.085693 
	C643.105530,939.119934 638.503479,932.200073 634.533752,924.943176 
	C627.471313,912.032715 619.969971,899.251099 614.286316,885.728760 
	C608.534668,872.044739 604.681335,857.554565 600.146667,843.369507 
	C594.977234,827.198975 594.398621,810.421265 594.061401,793.652283 
	C593.979065,789.557678 595.118896,785.425232 594.918274,781.348511 
	C594.160400,765.947510 599.143860,751.621338 603.056885,737.142883 
	C605.040039,729.805176 608.212219,722.769226 611.112427,715.705872 
	C613.083740,710.905090 615.274414,706.159668 617.789124,701.623535 
	C624.408691,689.683044 630.727539,677.523254 638.182678,666.115051 
	C644.298828,656.755615 651.761169,648.257751 658.837830,639.549438 
	C665.577881,631.255371 672.146912,622.750854 679.582764,615.109192 
	C692.561523,601.771179 705.896606,588.752502 719.562866,576.119751 
	C729.586975,566.853699 740.269165,558.283386 750.863953,549.655823 
	C759.368530,542.730408 768.417297,536.463379 776.799072,529.399292 
	C787.114502,520.705505 796.979065,511.477325 807.055725,502.499573 
	C815.864258,494.651672 824.868835,487.014435 833.475525,478.951874 
	C844.525696,468.600250 855.607178,458.243256 866.054810,447.296600 
	C880.491638,432.170197 894.506104,416.630310 908.391785,400.992493 
	C915.629761,392.841217 922.452515,384.287476 929.008179,375.573547 
	C935.593872,366.819794 941.914001,357.832336 947.811707,348.602997 
	C956.134705,335.578491 964.100586,322.319092 971.964905,309.009949 
	C981.046326,293.641113 988.821472,277.665497 994.294128,260.582764 
	C997.456299,250.711777 1002.020691,241.269745 1004.876404,231.325226 
	C1010.017273,213.423492 1013.862915,195.161896 1014.906494,176.515198 
	C1015.722046,161.942612 1016.936707,147.204681 1015.632690,132.751450 
	C1014.190063,116.761299 1012.371948,100.593124 1006.992676,85.177864 
	C1004.000244,76.602516 1002.049805,67.612312 998.479187,59.303490 
	C994.380005,49.764713 989.197205,40.667133 984.119812,31.582073 
	C980.915710,25.848785 977.082458,20.463051 973.457214,14.970373 
	C970.359680,10.277344 967.156494,5.654079 964.000000,0.999992 
	C1146.291138,1.000000 1328.582153,1.000000 1511.000000,1.000000 
	C1511.000000,411.362701 1511.000000,821.725403 1510.606445,1232.706055 
	C1509.875366,1232.976685 1509.341309,1232.682983 1509.229614,1232.273804 
	C1506.788818,1223.333252 1505.266235,1214.021240 1501.767700,1205.521362 
	C1497.570190,1195.323120 1492.514771,1185.255371 1486.305054,1176.174316 
	C1480.702515,1167.980957 1473.235352,1161.006592 1466.240601,1153.835938 
	C1457.600586,1144.978638 1447.655518,1137.832886 1436.762451,1131.842163 
	C1423.134521,1124.347412 1409.127930,1118.210571 1393.969238,1114.303833 
	C1378.733643,1110.377441 1363.336426,1108.521118 1347.742920,1108.106567 
	C1338.488892,1107.860474 1329.188599,1108.414673 1319.943604,1109.085205 
	C1312.766968,1109.605713 1305.514404,1110.303589 1298.527222,1111.922363 
	C1287.746460,1114.420166 1277.264771,1118.221924 1266.471313,1120.647705 
	C1253.254028,1123.618164 1243.878540,1132.141235 1234.638184,1141.023560 
	C1233.266479,1142.342163 1232.689819,1144.487793 1231.490601,1146.726685 
	C1233.147949,1146.836792 1234.004517,1147.093018 1234.757324,1146.913696 
	C1244.741333,1144.537231 1254.843384,1142.539307 1264.653442,1139.577271 
	C1280.458008,1134.805176 1296.360107,1132.303833 1312.804199,1135.005737 
	C1327.670654,1137.448486 1342.228760,1141.207520 1355.657349,1148.083984 
	C1363.368652,1152.032837 1370.490723,1157.203491 1377.633301,1162.175659 
	C1389.086182,1170.148438 1398.990356,1179.785156 1405.930298,1191.983154 
	C1410.708618,1200.381836 1415.636353,1208.896851 1418.835205,1217.947388 
	C1424.115356,1232.887085 1426.133911,1248.370728 1424.196045,1264.449463 
	C1422.619263,1277.532715 1419.847412,1290.213135 1415.074341,1302.373779 
	C1409.742188,1315.958862 1403.208130,1329.020386 1394.540283,1340.867920 
	C1387.991089,1349.819824 1381.795044,1359.098389 1374.537598,1367.445312 
	C1366.621826,1376.549316 1357.873291,1384.968140 1349.104126,1393.280640 
	C1339.330811,1402.545166 1329.524048,1411.855103 1319.000366,1420.225708 
	C1307.536865,1429.343750 1295.257202,1437.439087 1283.288208,1445.916748 
	C1275.774658,1451.238770 1268.401001,1456.806152 1260.568604,1461.618774 
	C1248.287354,1469.165161 1235.698486,1476.213867 1223.183472,1483.374878 
	C1218.399292,1486.112549 1213.386475,1488.451050 1208.606323,1491.195435 
	C1199.326904,1496.522827 1188.767700,1500.367188 1184.463989,1511.732788 
	C1185.041870,1511.795532 1185.893066,1512.125244 1186.598511,1511.929688 
	C1199.947876,1508.226807 1213.289795,1504.495117 1226.607178,1500.678833 
	C1228.952393,1500.006836 1231.141968,1498.806519 1233.470093,1498.057617 
	C1241.980225,1495.320801 1250.604492,1492.913696 1259.022095,1489.921753 
	C1267.450928,1486.926025 1275.658936,1483.314819 1284.008911,1480.090454 
	C1294.449341,1476.058960 1305.096313,1472.518555 1315.361572,1468.088257 
	C1327.964111,1462.649170 1340.484253,1456.928833 1352.631836,1450.552246 
	C1364.234985,1444.461426 1375.490479,1437.650879 1386.571167,1430.639038 
	C1396.551025,1424.323853 1406.250977,1417.530151 1415.769409,1410.532837 
	C1424.186890,1404.344849 1432.672729,1398.101929 1440.239746,1390.943726 
	C1449.082886,1382.578369 1456.786011,1373.022339 1465.304077,1364.295532 
	C1476.556885,1352.766846 1484.739502,1339.063477 1492.644165,1325.306152 
	C1497.482056,1316.886108 1500.697388,1307.443359 1503.895386,1298.201782 
	C1506.229370,1291.457153 1507.298096,1284.279053 1509.066162,1277.328735 
	C1509.290771,1276.445557 1510.335327,1275.771118 1511.000000,1275.000000 
M423.031372,1376.030640 
	C423.031372,1376.030640 423.059937,1376.094360 423.665863,1375.806030 
	C427.384827,1371.377808 432.816315,1368.365479 435.192017,1362.826782 
	C434.944122,1362.340210 434.696259,1361.853638 434.448395,1361.367188 
	C431.615814,1362.209473 428.783203,1363.051880 425.196808,1364.009766 
	C420.766815,1365.530518 416.247620,1366.834839 411.924988,1368.616089 
	C402.168213,1372.636353 392.217468,1376.333740 382.884521,1381.196777 
	C371.724426,1387.011841 360.740112,1393.346802 350.399200,1400.497192 
	C341.070038,1406.947998 333.305267,1414.987305 329.104401,1426.294312 
	C324.172516,1439.568848 330.410522,1453.133179 339.303040,1461.505127 
	C350.476837,1472.025024 364.123810,1478.887939 378.094666,1484.994385 
	C383.635406,1487.416260 389.123993,1490.132812 394.899323,1491.808838 
	C410.689209,1496.391235 426.597534,1500.573242 442.502716,1504.747192 
	C449.927490,1506.695557 457.389465,1508.637939 464.947784,1509.910889 
	C477.544800,1512.032471 490.238464,1513.575562 502.881104,1515.432373 
	C515.196838,1517.240967 527.458923,1519.497070 539.819336,1520.895874 
	C552.584839,1522.340576 565.434143,1523.080933 578.258179,1523.963379 
	C594.236450,1525.063110 610.223694,1526.784180 626.211914,1526.839966 
	C666.146179,1526.979248 706.083557,1526.364258 746.018677,1525.955811 
	C751.794250,1525.896851 757.568542,1525.366211 763.336243,1524.954102 
	C781.428528,1523.661621 799.516968,1522.316040 817.608215,1521.009644 
	C819.101257,1520.901733 820.620239,1521.061401 822.100403,1520.879272 
	C832.356506,1519.617554 842.593689,1518.192871 852.860779,1517.031982 
	C860.548340,1516.162598 868.310791,1515.894531 875.968994,1514.842407 
	C885.692200,1513.506470 895.316162,1511.457886 905.032288,1510.059570 
	C920.282349,1507.864746 935.657959,1506.441162 950.825684,1503.801758 
	C968.685547,1500.693848 986.401001,1496.734741 1004.140442,1492.963013 
	C1019.130737,1489.776123 1034.131836,1486.597656 1049.008057,1482.927979 
	C1066.093750,1478.713623 1083.044922,1473.954712 1100.062744,1469.463379 
	C1101.165771,1469.172241 1102.375000,1469.277222 1103.472656,1468.973145 
	C1108.039307,1467.708130 1112.582031,1466.356812 1117.133545,1465.037231 
	C1116.066650,1463.196411 1115.180542,1462.523438 1114.182617,1462.144775 
	C1107.804810,1459.725220 1101.128784,1457.914185 1095.072632,1454.866089 
	C1086.111206,1450.355835 1077.553955,1445.034424 1068.879517,1439.964355 
	C1056.459839,1432.705200 1045.058105,1424.083374 1034.612305,1414.183350 
	C1033.617432,1413.240479 1032.059326,1412.045654 1030.947266,1412.210693 
	C1024.022339,1413.238281 1017.135071,1414.545044 1010.264038,1415.904419 
	C1002.083008,1417.522949 993.979248,1419.585938 985.754822,1420.918457 
	C973.464417,1422.909424 961.078674,1424.304321 948.768311,1426.180908 
	C930.160950,1429.017578 911.606873,1432.209961 892.983826,1434.934326 
	C883.397217,1436.336792 873.691833,1436.906982 864.073181,1438.115845 
	C849.431580,1439.955933 834.852356,1442.339233 820.183838,1443.903564 
	C806.747620,1445.336548 793.233948,1446.076782 779.744019,1446.964966 
	C763.098999,1448.060791 746.446411,1449.772095 729.791443,1449.840820 
	C691.190918,1449.999634 652.586548,1449.366577 613.984741,1448.957275 
	C608.209351,1448.896118 602.436035,1448.359741 596.667786,1447.957153 
	C578.076172,1446.659790 559.487305,1445.324097 540.897705,1443.998535 
	C535.959412,1443.646362 531.007019,1443.419434 526.087708,1442.888428 
	C514.825623,1441.672607 503.584412,1440.264282 492.325745,1439.015137 
	C486.442688,1438.362427 480.476807,1438.247070 474.662659,1437.233276 
	C466.627991,1435.832397 458.739716,1433.606934 450.719299,1432.105347 
	C438.057526,1429.734619 426.497467,1425.501709 417.244141,1415.916016 
	C411.704865,1410.177734 409.561066,1403.890503 412.101654,1396.422607 
	C413.660370,1391.840820 416.037811,1387.537476 418.640411,1382.768188 
	C420.125244,1380.531982 421.610077,1378.295776 423.031372,1376.030640 
M1203.107300,422.980103 
	C1197.169922,424.650177 1191.205811,426.231079 1185.300537,428.007751 
	C1170.523071,432.453735 1155.668335,436.678375 1141.041504,441.579437 
	C1127.822510,446.008820 1114.859375,451.203430 1101.792847,456.085541 
	C1093.634277,459.133881 1085.438843,462.093262 1077.359253,465.339630 
	C1068.845947,468.760315 1060.441528,472.453491 1052.007202,476.068817 
	C1046.344360,478.496155 1040.651733,480.867126 1035.082397,483.496185 
	C1028.922974,486.403809 1022.933777,489.670532 1016.790039,492.612976 
	C1007.496216,497.064087 998.041565,501.187714 988.830994,505.801300 
	C982.629944,508.907440 976.719360,512.596680 970.701660,516.064636 
	C961.553101,521.336914 952.382202,526.572449 943.299500,531.956360 
	C934.975098,536.890808 926.601013,541.768188 918.531860,547.099121 
	C910.363220,552.495789 902.354126,558.175415 894.611145,564.165405 
	C882.395813,573.615112 870.315063,583.252869 858.465576,593.155823 
	C851.897583,598.644897 845.781677,604.700439 839.706543,610.746277 
	C833.891357,616.533447 828.242737,622.505554 822.797119,628.641479 
	C817.419495,634.700745 812.145508,640.884399 807.273438,647.350586 
	C802.540588,653.632019 798.051941,660.149475 794.044617,666.912109 
	C789.246887,675.008789 784.888916,683.383423 780.684326,691.809265 
	C776.910278,699.372070 772.907166,706.937683 770.269165,714.919861 
	C767.166992,724.306885 765.052917,734.073364 763.210815,743.807861 
	C761.628723,752.168152 760.402588,760.695007 760.132996,769.183655 
	C759.593262,786.176880 759.463501,803.190491 763.925842,819.882629 
	C766.775635,830.542175 768.534363,841.511658 771.733276,852.053589 
	C774.223206,860.258972 778.079102,868.063354 781.527161,875.958984 
	C783.399841,880.247253 785.601501,884.400269 787.806091,888.533569 
	C793.886353,899.933105 799.523071,911.614868 806.323608,922.571472 
	C812.970764,933.281067 820.695496,943.338989 828.217407,953.482605 
	C833.448914,960.537415 839.189392,967.212646 844.608276,974.131226 
	C851.143921,982.475586 857.728455,990.788635 864.012695,999.320801 
	C869.182800,1006.340515 873.869141,1013.678284 876.655823,1022.084106 
	C879.652283,1031.122681 884.054504,1039.874634 885.707092,1049.132935 
	C887.663696,1060.094727 888.613098,1071.575684 887.646301,1082.625732 
	C886.650513,1094.007446 883.397949,1105.317261 880.031738,1116.321533 
	C877.802246,1123.609619 873.903381,1130.449097 870.263916,1137.227539 
	C865.927002,1145.305176 861.833252,1153.697266 856.252319,1160.879150 
	C848.286377,1171.130493 839.057129,1180.399048 830.397461,1190.114258 
	C829.804810,1190.779053 829.463013,1191.667603 828.305847,1193.647583 
	C831.627136,1192.747803 834.015320,1192.604248 835.846802,1191.520142 
	C845.422485,1185.852539 855.057495,1180.244507 864.282959,1174.037598 
	C873.238647,1168.012329 881.956604,1161.576416 890.357788,1154.798706 
	C901.615479,1145.716675 912.949951,1136.632080 923.345276,1126.608887 
	C932.028687,1118.236328 939.232056,1108.349976 947.409790,1099.426270 
	C958.116150,1087.743408 966.747803,1074.638916 973.928284,1060.646606 
	C978.028198,1052.657104 980.461304,1043.828979 984.249817,1035.659058 
	C989.538330,1024.254028 990.930542,1011.969543 991.742920,999.865906 
	C992.934692,982.110107 990.593079,964.608948 984.455322,947.582275 
	C979.957642,935.105591 974.538086,923.272766 967.085266,912.338318 
	C964.349792,908.324829 961.808777,904.176880 959.015930,900.204834 
	C954.245850,893.420593 949.371216,886.709351 944.495483,880.000122 
	C939.787598,873.521790 934.879272,867.184204 930.321777,860.602783 
	C925.385864,853.474915 920.733032,846.150085 915.994385,838.886658 
	C910.747620,830.844116 905.046692,823.045288 900.455933,814.641785 
	C895.535767,805.635132 890.931030,796.309814 887.545410,786.648132 
	C883.309692,774.560181 878.915833,762.180969 877.334290,749.583008 
	C874.226440,724.827454 880.369263,701.329590 892.277283,679.572021 
	C898.345764,668.484070 905.074280,657.651367 912.545776,647.467285 
	C919.914062,637.424194 928.343201,628.112427 936.788757,618.922668 
	C942.756531,612.429016 949.459839,606.600037 955.960510,600.610779 
	C961.751038,595.275818 967.664368,590.070557 973.614014,584.912537 
	C980.922119,578.576843 988.134399,572.107849 995.733215,566.135681 
	C1005.531982,558.434631 1015.633667,551.115540 1025.678467,543.731995 
	C1033.942871,537.657104 1042.320557,531.736450 1050.635498,525.730042 
	C1054.149414,523.191650 1057.550537,520.488708 1061.144775,518.071533 
	C1068.440796,513.164734 1075.863892,508.447083 1083.175293,503.562836 
	C1087.788330,500.481171 1092.203735,497.098236 1096.868530,494.100769 
	C1104.332642,489.304596 1111.927612,484.711609 1119.472900,480.042023 
	C1124.409058,476.987213 1129.379028,473.986450 1134.290039,470.891998 
	C1138.634888,468.154327 1142.877808,465.254333 1147.238892,462.543488 
	C1155.645264,457.318024 1164.111206,452.188293 1172.537109,446.994141 
	C1178.385132,443.389008 1184.207886,439.742554 1190.742554,436.019043 
	C1191.866455,435.360138 1192.990479,434.701233 1194.743896,433.995331 
	C1195.509888,433.368469 1196.276001,432.741608 1197.692749,432.006622 
	C1198.499878,431.351837 1199.307129,430.697083 1200.566406,429.977448 
	C1200.566406,429.977448 1200.999756,429.833252 1201.718628,429.951019 
	C1206.016602,427.200653 1211.192139,425.523926 1214.237793,421.241272 
	C1213.893066,420.656921 1213.548218,420.072571 1213.203491,419.488251 
	C1210.119507,420.622742 1207.035645,421.757233 1203.107300,422.980103 
M498.093231,1636.578247 
	C489.960846,1633.011108 481.260101,1630.313232 473.929382,1625.520020 
	C470.109833,1623.022583 465.340302,1619.233276 465.820404,1612.416870 
	C466.484070,1602.994263 472.994995,1597.898438 478.664612,1591.956665 
	C479.892609,1590.669556 480.803436,1589.079834 481.860321,1587.629517 
	C480.087708,1587.161377 478.000305,1585.838013 476.590851,1586.356689 
	C461.175720,1592.030029 445.548767,1597.292725 430.623932,1604.083618 
	C417.490234,1610.059570 405.133087,1617.843384 396.016998,1629.536743 
	C384.536102,1644.263794 385.074066,1658.699707 395.602386,1672.879150 
	C402.786865,1682.555054 412.435516,1689.937134 422.760773,1696.167603 
	C437.599426,1705.121460 453.146454,1712.745728 469.693756,1717.931030 
	C488.968018,1723.970703 508.444580,1729.367310 527.855225,1734.967285 
	C531.931396,1736.143066 536.061462,1737.228149 540.237183,1737.944824 
	C553.935486,1740.295776 567.656860,1742.517822 581.387451,1744.674316 
	C593.203735,1746.529907 605.004272,1748.597900 616.885681,1749.896484 
	C629.987427,1751.328369 643.162292,1752.185181 656.325684,1752.936523 
	C671.858276,1753.822998 687.407593,1754.647827 702.959290,1754.894653 
	C714.889832,1755.083984 726.839600,1754.446289 738.772827,1753.975098 
	C752.489258,1753.433594 766.204712,1752.797241 779.906372,1751.968140 
	C793.731689,1751.131470 807.563538,1750.258057 821.348633,1748.940918 
	C835.725586,1747.567139 850.126648,1746.123657 864.379395,1743.847900 
	C884.713196,1740.600708 905.002258,1736.954834 925.158264,1732.749512 
	C941.757874,1729.286377 958.282715,1725.271118 974.574890,1720.577881 
	C994.289978,1714.898682 1013.810303,1708.499146 1033.249634,1701.922974 
	C1044.916138,1697.976196 1056.277466,1693.123413 1067.754272,1688.622437 
	C1071.982788,1686.964111 1076.149048,1685.146362 1081.717163,1682.829956 
	C1078.625244,1681.054932 1077.084717,1679.921753 1075.366821,1679.227173 
	C1067.574219,1676.076538 1059.642578,1673.255005 1051.935791,1669.912109 
	C1045.978760,1667.328369 1040.337769,1664.026855 1034.455200,1661.258911 
	C1024.835327,1656.732422 1014.904358,1652.812866 1005.522278,1647.847900 
	C993.160522,1641.306396 981.230408,1633.952271 969.027588,1627.102783 
	C967.832458,1626.431885 965.963684,1626.521973 964.517700,1626.810669 
	C956.345947,1628.442017 948.257751,1630.539795 940.046936,1631.917236 
	C926.322693,1634.219482 912.517761,1636.035278 898.764465,1638.170044 
	C880.166504,1641.057007 861.615906,1644.266113 842.985046,1646.915894 
	C832.574890,1648.396362 822.036377,1648.957153 811.568359,1650.052734 
	C796.370361,1651.643677 781.218628,1653.912720 765.982971,1654.843384 
	C749.419800,1655.854980 732.783386,1655.923584 716.178772,1655.926758 
	C699.907593,1655.929810 683.635132,1655.381348 667.365479,1654.981445 
	C657.757751,1654.745361 648.151794,1654.388916 638.550415,1653.965210 
	C634.105225,1653.769165 629.669678,1653.320190 625.235352,1652.922852 
	C610.813477,1651.630859 596.394592,1650.305786 581.973389,1649.006226 
	C580.490112,1648.872559 578.986328,1648.919678 577.513733,1648.721680 
	C565.977722,1647.170898 554.427185,1645.711792 542.919617,1643.970093 
	C528.210327,1641.743774 513.536987,1639.279541 498.093231,1636.578247 
M693.581665,1254.000000 
	C679.037903,1254.666626 664.497498,1255.804321 649.949707,1255.908447 
	C611.957886,1256.180420 573.962341,1256.110962 535.969177,1255.955933 
	C515.531433,1255.872437 495.094543,1255.386719 474.659637,1254.965942 
	C468.716309,1254.843628 462.768707,1254.464111 456.844635,1253.952637 
	C438.479980,1252.367188 420.107391,1250.837524 401.774445,1248.934326 
	C391.182373,1247.834839 380.606415,1246.359863 370.125824,1244.481323 
	C362.756195,1243.160522 355.612183,1240.624878 348.273499,1239.077148 
	C336.415009,1236.576294 325.287720,1232.720947 316.453156,1223.959351 
	C311.705139,1219.250610 311.985565,1215.422241 316.095642,1209.863525 
	C320.120392,1204.420166 325.069183,1200.404785 330.905548,1197.207886 
	C340.610168,1191.892090 350.098816,1186.156860 359.976837,1181.192017 
	C365.741333,1178.294800 372.118103,1176.633911 378.161774,1174.269531 
	C387.086426,1170.778076 395.815369,1166.723389 404.889221,1163.691284 
	C418.147339,1159.261353 431.610962,1155.434692 445.035797,1151.518066 
	C458.766785,1147.512085 472.552368,1143.692749 486.321960,1139.819702 
	C498.076141,1136.513550 509.848083,1133.270264 521.592041,1129.928467 
	C522.797791,1129.585327 523.866089,1128.759277 525.837280,1127.711182 
	C524.171021,1127.273193 523.718811,1127.039062 523.275269,1127.054321 
	C505.232483,1127.681885 487.150238,1127.791870 469.160004,1129.134033 
	C451.824829,1130.427490 434.490601,1132.409668 417.328796,1135.165405 
	C399.128082,1138.088013 381.106384,1142.161987 363.058472,1145.978760 
	C357.001007,1147.259766 351.122986,1149.369751 345.127411,1150.967163 
	C336.014679,1153.395508 326.785706,1155.424683 317.763367,1158.145020 
	C307.942444,1161.106445 298.302551,1164.667725 288.581238,1167.960327 
	C281.032043,1170.516968 273.378510,1172.803101 265.955109,1175.683105 
	C257.944122,1178.791260 250.154999,1182.469116 242.253372,1185.861816 
	C237.934433,1187.716187 233.569275,1189.462891 229.249054,1191.314331 
	C219.862015,1195.337280 210.118439,1198.717896 201.203964,1203.606934 
	C189.310669,1210.129639 176.844833,1216.067261 168.164062,1227.308105 
	C165.073334,1231.310425 163.626816,1242.442749 166.367676,1246.947754 
	C173.469376,1258.620117 185.417969,1263.862915 197.162277,1268.275757 
	C211.736313,1273.752197 226.949890,1277.704346 242.113403,1281.382446 
	C256.544525,1284.883179 271.240234,1287.331543 285.871277,1289.954468 
	C294.250610,1291.456787 302.721588,1292.473145 311.171356,1293.551270 
	C323.378143,1295.108887 335.595520,1296.591553 347.824036,1297.967285 
	C352.739319,1298.520142 357.709961,1298.570801 362.631317,1299.081909 
	C377.830536,1300.660156 392.992126,1302.672852 408.218018,1303.901367 
	C422.059570,1305.017944 435.966125,1305.328369 449.843994,1305.995239 
	C463.722046,1306.661987 477.597260,1307.396729 491.478973,1307.975586 
	C502.079559,1308.417603 512.689819,1308.988403 523.293152,1308.937866 
	C561.561096,1308.755249 599.828430,1308.386841 638.094727,1307.970459 
	C649.368713,1307.847900 660.642090,1307.427246 671.909119,1306.977539 
	C686.124268,1306.410034 700.328796,1305.571289 714.544983,1305.038208 
	C727.311035,1304.559570 740.093506,1304.496216 752.855774,1303.948608 
	C762.744202,1303.524292 772.617981,1302.703247 782.488892,1301.937500 
	C798.747986,1300.676392 814.999817,1299.320801 831.254028,1297.997070 
	C835.359802,1297.662842 839.473206,1297.389282 843.565918,1296.933350 
	C861.028381,1294.987915 878.484436,1292.985474 895.942688,1291.002441 
	C907.853516,1289.649536 919.817505,1288.648071 931.662842,1286.860474 
	C951.721741,1283.833740 971.714111,1280.360718 991.718079,1276.978271 
	C1007.190857,1274.361816 1022.725281,1272.009766 1038.073364,1268.783936 
	C1053.872192,1265.463257 1069.324707,1260.273926 1085.219849,1257.704468 
	C1097.059692,1255.790405 1106.548828,1250.046143 1116.350708,1244.273926 
	C1125.299072,1239.004639 1134.008911,1233.282471 1143.206543,1228.495361 
	C1157.329346,1221.144775 1171.797241,1214.458374 1186.063477,1207.379150 
	C1187.386108,1206.723022 1188.313354,1205.270386 1189.424194,1204.187622 
	C1186.603027,1203.128784 1184.448853,1203.005615 1182.371826,1203.348755 
	C1169.304077,1205.507568 1156.262695,1207.826416 1143.194336,1209.981567 
	C1130.925659,1212.004639 1118.634155,1213.889282 1106.353394,1215.839478 
	C1097.618530,1217.226562 1088.896973,1218.702393 1080.147217,1219.987793 
	C1072.690430,1221.083496 1065.207642,1222.010986 1057.726074,1222.928467 
	C1046.325195,1224.326782 1034.905884,1225.578979 1023.513245,1227.039429 
	C1017.832886,1227.767578 1012.212769,1228.964966 1006.532410,1229.693359 
	C997.087585,1230.904419 987.619446,1231.937622 978.154785,1232.987793 
	C973.575134,1233.495850 968.972046,1233.795898 964.394958,1234.323486 
	C951.188599,1235.845947 938.003479,1237.565552 924.783508,1238.954834 
	C915.933960,1239.884766 907.032654,1240.309204 898.166138,1241.092163 
	C884.073547,1242.336670 870.000854,1243.816772 855.899902,1244.950562 
	C848.150818,1245.573608 840.345032,1245.483398 832.593262,1246.083374 
	C817.492493,1247.252075 802.427002,1248.904907 787.318176,1249.934937 
	C773.128174,1250.902344 758.902832,1251.367065 744.689758,1251.976929 
	C727.981262,1252.693970 711.269287,1253.329224 693.581665,1254.000000 
z"/>
<path fill="#EA2D2E" opacity="1.000000" stroke="none" 
	d="
M963.600037,0.999992 
	C967.156494,5.654079 970.359680,10.277344 973.457214,14.970373 
	C977.082458,20.463051 980.915710,25.848785 984.119812,31.582073 
	C989.197205,40.667133 994.380005,49.764713 998.479187,59.303490 
	C1002.049805,67.612312 1004.000244,76.602516 1006.992676,85.177864 
	C1012.371948,100.593124 1014.190063,116.761299 1015.632690,132.751450 
	C1016.936707,147.204681 1015.722046,161.942612 1014.906494,176.515198 
	C1013.862915,195.161896 1010.017273,213.423492 1004.876404,231.325226 
	C1002.020691,241.269745 997.456299,250.711777 994.294128,260.582764 
	C988.821472,277.665497 981.046326,293.641113 971.964905,309.009949 
	C964.100586,322.319092 956.134705,335.578491 947.811707,348.602997 
	C941.914001,357.832336 935.593872,366.819794 929.008179,375.573547 
	C922.452515,384.287476 915.629761,392.841217 908.391785,400.992493 
	C894.506104,416.630310 880.491638,432.170197 866.054810,447.296600 
	C855.607178,458.243256 844.525696,468.600250 833.475525,478.951874 
	C824.868835,487.014435 815.864258,494.651672 807.055725,502.499573 
	C796.979065,511.477325 787.114502,520.705505 776.799072,529.399292 
	C768.417297,536.463379 759.368530,542.730408 750.863953,549.655823 
	C740.269165,558.283386 729.586975,566.853699 719.562866,576.119751 
	C705.896606,588.752502 692.561523,601.771179 679.582764,615.109192 
	C672.146912,622.750854 665.577881,631.255371 658.837830,639.549438 
	C651.761169,648.257751 644.298828,656.755615 638.182678,666.115051 
	C630.727539,677.523254 624.408691,689.683044 617.789124,701.623535 
	C615.274414,706.159668 613.083740,710.905090 611.112427,715.705872 
	C608.212219,722.769226 605.040039,729.805176 603.056885,737.142883 
	C599.143860,751.621338 594.160400,765.947510 594.918274,781.348511 
	C595.118896,785.425232 593.979065,789.557678 594.061401,793.652283 
	C594.398621,810.421265 594.977234,827.198975 600.146667,843.369507 
	C604.681335,857.554565 608.534668,872.044739 614.286316,885.728760 
	C619.969971,899.251099 627.471313,912.032715 634.533752,924.943176 
	C638.503479,932.200073 643.105530,939.119934 647.587402,946.085693 
	C655.033142,957.658020 662.547729,969.187256 670.150940,980.656738 
	C678.750671,993.629456 687.377869,1006.586670 696.194397,1019.412109 
	C700.897217,1026.253174 706.228455,1032.663574 710.903931,1039.521973 
	C715.699280,1046.556030 720.016357,1053.914917 724.592224,1061.100098 
	C726.574768,1064.213379 728.729004,1067.216919 730.720886,1070.324341 
	C734.136414,1075.652588 737.718140,1080.893188 740.807800,1086.406982 
	C745.390625,1094.585571 749.684204,1102.930176 753.942749,1111.284790 
	C756.039917,1115.398926 757.782410,1119.693848 759.685425,1123.906982 
	C759.180664,1124.279663 758.675903,1124.652222 758.171143,1125.024902 
	C752.367676,1119.817261 746.544128,1114.631714 740.765625,1109.396484 
	C732.564941,1101.966919 724.387207,1094.511963 716.220947,1087.044556 
	C712.983215,1084.083740 709.822266,1081.039062 706.591736,1078.070312 
	C699.215576,1071.292114 691.792908,1064.564209 684.442261,1057.758667 
	C681.702637,1055.222168 679.095154,1052.541504 676.454407,1049.899780 
	C669.057068,1042.499634 661.623962,1035.134033 654.302856,1027.659058 
	C649.567017,1022.823547 645.109680,1017.713379 640.332214,1012.921082 
	C635.552246,1008.126343 630.301086,1003.787964 625.675415,998.856628 
	C620.785034,993.643005 616.477661,987.887512 611.744446,982.519653 
	C608.770630,979.147034 605.398315,976.129028 602.351624,972.816956 
	C595.755432,965.646484 589.016541,958.587280 582.773193,951.117126 
	C574.978394,941.790527 567.379883,932.276733 560.148743,922.508972 
	C553.257629,913.200317 546.913452,903.484741 540.392822,893.904541 
	C534.843262,885.751038 529.027771,877.747986 523.993225,869.283813 
	C519.537415,861.792603 515.910034,853.799500 512.080933,845.947937 
	C509.598328,840.857361 507.516296,835.572449 505.071228,830.462341 
	C496.633240,812.827026 491.439056,794.035278 488.467133,774.964233 
	C486.380920,761.576660 488.437500,747.593689 487.787598,733.917236 
	C487.202179,721.597351 491.016937,710.243469 494.184937,698.787354 
	C496.425995,690.683350 499.761536,682.765625 503.542267,675.233459 
	C508.151489,666.050781 513.396606,657.135986 519.008911,648.523865 
	C523.765076,641.225525 529.092041,634.228394 534.768494,627.614685 
	C548.724487,611.354248 562.540222,594.925232 577.346313,579.458069 
	C588.992432,567.292053 602.045105,556.474060 614.447876,545.030090 
	C619.788208,540.102600 624.865723,534.869385 630.416870,530.195862 
	C639.006653,522.964172 647.929504,516.129333 656.657532,509.060150 
	C667.276978,500.458984 677.720093,491.635345 688.466980,483.197784 
	C697.060791,476.450592 706.097595,470.269653 714.743774,463.586426 
	C721.048706,458.712891 726.934998,453.300201 733.197632,448.368774 
	C739.109253,443.713654 745.434021,439.577118 751.274902,434.839935 
	C757.791443,429.554657 763.905884,423.776978 770.310608,418.349670 
	C775.604004,413.863983 781.100952,409.619507 786.443665,405.190857 
	C794.351379,398.636169 802.296082,392.121033 810.051575,385.389252 
	C818.123352,378.382904 826.227844,371.384918 833.887634,363.940491 
	C844.829529,353.306335 855.372375,342.261810 866.100891,331.407623 
	C871.051697,326.398865 876.337341,321.684570 880.936523,316.373749 
	C887.233643,309.102417 893.197205,301.522400 898.984558,293.834320 
	C906.583923,283.739014 914.215149,273.636475 921.182678,263.106903 
	C926.429871,255.177124 930.927185,246.710403 935.266907,238.231201 
	C940.808228,227.404373 946.197693,216.471436 950.989075,205.299667 
	C953.967712,198.354431 955.701599,190.877090 958.030884,183.650421 
	C958.629456,181.793427 959.487915,180.015640 960.021179,178.142883 
	C964.898682,161.012650 969.591125,143.872971 970.058960,125.860245 
	C970.449646,110.816536 972.374084,95.741539 971.738281,80.760223 
	C970.934082,61.812222 969.918091,42.749901 964.731812,24.239332 
	C962.675049,16.898373 961.552307,9.295712 960.002197,1.406093 
	C961.066711,1.000000 962.133362,1.000000 963.600037,0.999992 
z"/>
<path fill="#0074BD" opacity="1.000000" stroke="none" 
	d="
M1.000019,1841.468628 
	C2.521581,1839.289551 4.474399,1837.801758 5.491775,1835.831055 
	C10.532574,1826.066406 18.732649,1819.236084 27.044191,1812.627686 
	C33.944862,1807.140991 41.087269,1801.831055 48.659519,1797.350342 
	C57.121696,1792.343018 66.159637,1788.298584 75.003807,1783.950562 
	C80.975204,1781.015015 86.965073,1778.090820 93.089142,1775.497925 
	C102.500656,1771.512817 112.005623,1767.742798 121.526207,1764.022827 
	C128.505661,1761.295654 135.453735,1758.387451 142.626846,1756.277222 
	C158.418869,1751.631226 174.289627,1747.225220 190.236465,1743.143921 
	C199.560593,1740.757812 209.032349,1738.782104 218.547241,1737.349243 
	C230.719330,1735.516113 242.975494,1734.089966 255.244797,1733.100586 
	C265.477600,1732.275391 275.803406,1731.758911 286.048431,1732.148071 
	C298.320557,1732.614136 310.484131,1734.597290 321.903290,1739.518188 
	C324.075470,1740.454346 325.839081,1742.338623 328.655640,1744.426025 
	C321.296936,1745.031616 315.411499,1745.400879 309.553192,1746.024658 
	C300.571655,1746.981079 291.556396,1747.792725 282.650635,1749.248169 
	C270.573700,1751.222046 258.570648,1753.666626 246.572159,1756.088867 
	C243.551422,1756.698730 240.682648,1758.036743 237.719864,1758.962769 
	C227.467621,1762.167358 217.033142,1764.879272 206.989410,1768.637573 
	C194.542038,1773.295288 182.247559,1778.450684 170.206833,1784.075562 
	C161.772293,1788.015869 153.707764,1792.836792 145.792236,1797.768799 
	C140.361420,1801.152466 136.218475,1806.014404 132.751068,1811.528931 
	C129.741409,1816.315430 130.779709,1820.557617 133.920135,1824.230957 
	C139.069168,1830.253906 145.467743,1834.587769 153.146896,1837.167969 
	C161.627045,1840.016968 169.785965,1843.837158 178.296631,1846.576294 
	C188.209366,1849.766724 198.359421,1852.216553 208.390762,1855.043457 
	C212.792358,1856.283813 217.101730,1857.888794 221.545639,1858.934570 
	C233.300705,1861.700928 245.033447,1864.661743 256.911957,1866.776611 
	C269.324280,1868.986572 281.912506,1870.190430 294.393494,1872.038818 
	C305.566895,1873.693481 316.680145,1875.756470 327.857178,1877.383545 
	C333.548645,1878.212158 339.338135,1878.343506 345.055267,1879.025391 
	C358.088623,1880.579834 371.084991,1882.464600 384.135315,1883.847778 
	C391.363892,1884.614136 398.688141,1884.435303 405.938873,1885.044312 
	C419.708649,1886.200928 433.450775,1887.683716 447.216248,1888.896484 
	C453.306030,1889.432983 459.420380,1889.772705 465.531067,1889.973022 
	C478.467834,1890.396851 491.413696,1890.557007 504.348022,1891.036011 
	C518.732544,1891.568848 533.106140,1892.391357 547.488708,1892.982300 
	C557.924561,1893.410889 568.365967,1893.733398 578.807678,1893.986450 
	C594.912476,1894.376709 611.018799,1894.728638 627.126221,1894.984741 
	C651.564697,1895.373657 676.004578,1895.900146 700.444275,1895.927368 
	C720.550110,1895.949829 740.657654,1895.383423 760.762390,1894.976196 
	C771.204529,1894.764648 781.644043,1894.380005 792.081543,1893.988403 
	C808.795959,1893.361450 825.507263,1892.649658 842.220825,1891.999512 
	C859.766357,1891.317139 877.329102,1890.939209 894.854736,1889.920044 
	C911.135193,1888.973267 927.372986,1887.308594 943.636719,1886.053345 
	C953.674438,1885.278809 963.730164,1884.739990 973.769653,1883.986694 
	C990.695435,1882.716675 1007.613098,1881.338745 1024.537354,1880.048950 
	C1034.076782,1879.322021 1043.641113,1878.872070 1053.160522,1877.948608 
	C1063.614868,1876.934448 1074.028076,1875.499634 1084.463623,1874.286621 
	C1091.319702,1873.489624 1098.183350,1872.756348 1105.044312,1872.001831 
	C1114.843506,1870.924072 1124.646362,1869.878906 1134.442017,1868.770630 
	C1142.266724,1867.885498 1150.107666,1867.094604 1157.896973,1865.957642 
	C1166.962891,1864.634155 1175.966797,1862.891357 1185.022095,1861.487793 
	C1199.424194,1859.255615 1213.875488,1857.326660 1228.248535,1854.926270 
	C1235.812256,1853.663208 1243.255615,1851.677368 1250.751587,1850.010376 
	C1265.722290,1846.681152 1280.812988,1843.803589 1295.626587,1839.880493 
	C1309.450684,1836.219604 1323.156128,1831.926392 1336.582520,1827.007202 
	C1347.059814,1823.168701 1357.398438,1818.602661 1367.122437,1813.153320 
	C1377.332275,1807.431885 1386.561523,1799.632324 1391.698608,1788.987427 
	C1396.078735,1779.911255 1394.772461,1770.134521 1388.930298,1761.399902 
	C1387.349243,1759.035889 1386.062744,1756.474854 1384.640991,1754.004272 
	C1384.886475,1753.607910 1385.131958,1753.211548 1385.377441,1752.815186 
	C1387.454712,1753.298462 1389.710083,1753.416260 1391.579224,1754.326782 
	C1400.937012,1758.885010 1409.413696,1764.872681 1415.565674,1773.268799 
	C1421.711792,1781.656982 1424.347534,1790.891479 1419.404541,1801.288330 
	C1414.148560,1812.343384 1406.468994,1820.938110 1396.184448,1827.430420 
	C1389.161987,1831.863281 1382.587402,1837.086060 1375.297485,1840.995117 
	C1365.002930,1846.515137 1354.289185,1851.272339 1343.646118,1856.117676 
	C1335.954834,1859.619385 1328.237061,1863.166382 1320.265991,1865.928467 
	C1305.037476,1871.205688 1289.706177,1876.227295 1274.257202,1880.815063 
	C1258.340210,1885.542236 1242.269653,1889.769531 1226.195312,1893.942993 
	C1214.828613,1896.894409 1203.390137,1899.609253 1191.901489,1902.042603 
	C1173.855591,1905.865112 1155.760010,1909.461914 1137.648193,1912.961670 
	C1124.808472,1915.442749 1111.951660,1917.902832 1099.022339,1919.835327 
	C1083.291260,1922.186279 1067.464600,1923.890259 1051.701416,1926.036865 
	C1042.612427,1927.274536 1033.574463,1928.882080 1024.499390,1930.228027 
	C1019.796631,1930.925537 1015.065857,1931.437500 1010.343262,1931.995605 
	C999.746826,1933.247925 989.148682,1934.484741 978.549438,1935.713135 
	C971.856873,1936.488770 965.171082,1937.342896 958.464905,1937.978149 
	C943.883057,1939.359497 929.293396,1940.661499 914.700439,1941.920776 
	C905.829224,1942.686279 896.954956,1943.473145 888.066284,1943.966919 
	C868.086182,1945.077026 848.094849,1945.983032 828.110962,1947.026611 
	C816.561279,1947.629761 805.024963,1948.607056 793.468872,1948.939819 
	C774.202209,1949.494629 754.925720,1949.804688 735.651245,1949.973633 
	C688.213074,1950.389282 640.773987,1950.800415 593.334534,1950.934326 
	C573.729370,1950.989624 554.117554,1950.492554 534.517456,1949.941040 
	C521.129211,1949.564209 507.752838,1948.712280 494.376831,1947.970581 
	C483.992096,1947.394653 473.620209,1946.585938 463.235260,1946.015381 
	C449.693207,1945.271240 436.122681,1944.941162 422.602783,1943.923462 
	C404.053436,1942.526855 385.544678,1940.598999 367.009369,1939.004883 
	C357.808594,1938.213623 348.559967,1937.916138 339.382141,1936.935425 
	C326.659241,1935.576050 313.996613,1933.658936 301.280151,1932.230103 
	C295.049835,1931.530029 288.723175,1931.673706 282.498566,1930.939819 
	C270.777679,1929.557983 259.109711,1927.732910 247.399109,1926.255859 
	C240.222397,1925.350586 232.997330,1924.834595 225.812164,1923.989258 
	C217.991409,1923.069092 210.189621,1921.985596 202.383347,1920.944946 
	C192.635193,1919.645508 182.871811,1918.443359 173.149246,1916.972900 
	C156.478348,1914.451294 139.843903,1911.689209 123.175529,1909.150391 
	C109.089584,1907.004883 94.938751,1905.259644 80.894585,1902.877686 
	C74.811722,1901.846069 68.845856,1899.897461 62.964958,1897.948486 
	C50.148186,1893.701050 36.896324,1890.269165 24.824533,1884.431519 
	C15.481838,1879.913574 6.800427,1873.176392 1.288848,1863.689575 
	C1.000000,1856.645752 1.000000,1849.291504 1.000019,1841.468628 
z"/>
<path fill="#0074BD" opacity="1.000000" stroke="none" 
	d="
M652.468689,2049.000000 
	C651.032166,2048.334473 650.088074,2047.130249 649.092712,2047.086304 
	C638.493896,2046.618286 627.885132,2046.383301 617.282715,2045.989136 
	C600.404175,2045.361694 583.511292,2044.941162 566.656433,2043.910889 
	C551.045166,2042.956543 535.479004,2041.277954 519.886658,2039.994995 
	C510.850128,2039.251221 501.772125,2038.922729 492.764862,2037.933350 
	C481.031891,2036.644409 469.362335,2034.788818 457.642975,2033.361938 
	C449.810638,2032.408203 441.908783,2031.999512 434.093170,2030.940186 
	C425.499756,2029.775879 416.972015,2028.129639 408.411102,2026.721069 
	C394.701447,2024.465332 380.952148,2022.427246 367.291077,2019.909424 
	C360.239716,2018.609741 353.324799,2016.540771 346.379028,2014.703125 
	C331.743469,2010.830933 316.908539,2007.538940 302.577393,2002.746948 
	C291.954468,1999.194824 281.997101,1993.652100 271.743225,1988.996216 
	C271.955109,1988.273560 272.166992,1987.551025 272.378876,1986.828369 
	C277.377441,1987.560303 282.372559,1988.316528 287.375244,1989.018921 
	C296.946716,1990.362549 306.518250,1991.706909 316.097382,1992.994019 
	C333.481140,1995.329590 350.852722,1997.770508 368.264984,1999.872681 
	C376.928528,2000.918579 385.684479,2001.174438 394.374207,2002.034424 
	C405.813080,2003.166382 417.223969,2004.578613 428.655060,2005.793335 
	C433.407166,2006.298218 438.176727,2006.657227 442.944733,2006.990601 
	C462.197662,2008.336670 481.453094,2009.646851 500.707550,2010.970703 
	C505.646271,2011.310181 510.580353,2011.754028 515.524475,2011.969727 
	C524.959229,2012.381592 534.397644,2012.748047 543.838318,2012.980957 
	C560.106689,2013.382446 576.378601,2013.640503 592.647888,2014.009888 
	C605.419678,2014.299805 618.187927,2014.819824 630.960938,2014.970337 
	C666.393066,2015.388062 701.826416,2015.794922 737.260315,2015.936035 
	C751.196106,2015.991577 765.135986,2015.379395 779.071655,2014.985107 
	C801.115112,2014.361450 823.171265,2013.968872 845.194153,2012.902466 
	C862.307312,2012.073853 879.377441,2010.359375 896.467896,2009.055054 
	C901.403564,2008.678345 906.340637,2008.307129 911.282349,2008.024658 
	C918.051025,2007.637451 924.839355,2007.515747 931.593262,2006.963013 
	C946.189026,2005.768555 960.766724,2004.353760 975.355286,2003.068848 
	C980.120361,2002.649170 984.906616,2002.456299 989.665283,2001.980469 
	C1002.088379,2000.738770 1014.502625,1999.407959 1026.918213,1998.092163 
	C1033.291626,1997.416870 1039.664673,1996.734375 1046.030518,1995.992310 
	C1058.255615,1994.567627 1070.475098,1993.094116 1082.697876,1991.648682 
	C1090.192993,1990.762207 1097.709717,1990.031982 1105.180542,1988.974976 
	C1113.935303,1987.736206 1122.644043,1986.175415 1131.384644,1984.832153 
	C1146.426392,1982.520508 1161.501831,1980.415894 1176.514893,1977.933472 
	C1184.569458,1976.601685 1192.500488,1974.539673 1200.528564,1973.026855 
	C1215.302124,1970.242554 1230.173096,1967.938232 1244.877686,1964.837280 
	C1258.274048,1962.012085 1271.524658,1958.478394 1284.801392,1955.107056 
	C1300.114258,1951.218506 1315.437256,1947.352661 1330.659180,1943.128418 
	C1343.965698,1939.435791 1357.252441,1935.600830 1370.340332,1931.209351 
	C1386.184814,1925.892944 1402.000732,1920.392212 1417.477051,1914.104858 
	C1432.317749,1908.075806 1447.040894,1901.569946 1461.203979,1894.112061 
	C1475.711792,1886.472778 1489.231934,1877.037476 1501.397705,1865.932983 
	C1504.822144,1862.807007 1507.345093,1858.693115 1510.640747,1855.016235 
	C1511.000000,1859.689331 1511.000000,1864.378540 1510.658813,1869.300903 
	C1509.554199,1871.114014 1508.587402,1872.629395 1508.059570,1874.284668 
	C1503.960693,1887.143433 1497.066406,1898.381348 1488.103394,1908.344482 
	C1473.706665,1924.347412 1456.758301,1937.285767 1437.873413,1947.380615 
	C1424.039307,1954.775391 1409.683228,1961.330444 1395.140747,1967.226685 
	C1378.733521,1973.879028 1361.986816,1979.773438 1345.144409,1985.249146 
	C1331.085449,1989.819946 1316.704346,1993.418335 1302.411865,1997.246216 
	C1290.922974,2000.323242 1279.426880,2003.443359 1267.801514,2005.923706 
	C1252.163086,2009.260132 1236.390991,2011.966797 1220.688721,2015.009033 
	C1212.508667,2016.593872 1204.411499,2018.703613 1196.178467,2019.898193 
	C1180.281982,2022.204834 1164.297729,2023.898926 1148.384399,2026.097778 
	C1135.574463,2027.867676 1122.851318,2030.291748 1110.024658,2031.909668 
	C1094.382690,2033.882935 1078.689087,2035.494019 1062.987793,2036.935181 
	C1046.093750,2038.485718 1029.163818,2039.644409 1012.251648,2040.999512 
	C1000.104492,2041.972656 987.975281,2043.251831 975.811951,2043.920166 
	C958.955444,2044.846680 942.075684,2045.361694 925.203491,2045.987915 
	C914.438538,2046.387451 903.667175,2046.619385 892.905579,2047.086426 
	C891.911194,2047.129639 890.967285,2048.334473 890.000000,2049.000000 
	C810.979126,2049.000000 731.958191,2049.000000 652.468689,2049.000000 
z"/>
<path fill="#0074BD" opacity="1.000000" stroke="none" 
	d="
M1511.000000,1274.531372 
	C1510.335327,1275.771118 1509.290771,1276.445557 1509.066162,1277.328735 
	C1507.298096,1284.279053 1506.229370,1291.457153 1503.895386,1298.201782 
	C1500.697388,1307.443359 1497.482056,1316.886108 1492.644165,1325.306152 
	C1484.739502,1339.063477 1476.556885,1352.766846 1465.304077,1364.295532 
	C1456.786011,1373.022339 1449.082886,1382.578369 1440.239746,1390.943726 
	C1432.672729,1398.101929 1424.186890,1404.344849 1415.769409,1410.532837 
	C1406.250977,1417.530151 1396.551025,1424.323853 1386.571167,1430.639038 
	C1375.490479,1437.650879 1364.234985,1444.461426 1352.631836,1450.552246 
	C1340.484253,1456.928833 1327.964111,1462.649170 1315.361572,1468.088257 
	C1305.096313,1472.518555 1294.449341,1476.058960 1284.008911,1480.090454 
	C1275.658936,1483.314819 1267.450928,1486.926025 1259.022095,1489.921753 
	C1250.604492,1492.913696 1241.980225,1495.320801 1233.470093,1498.057617 
	C1231.141968,1498.806519 1228.952393,1500.006836 1226.607178,1500.678833 
	C1213.289795,1504.495117 1199.947876,1508.226807 1186.598511,1511.929688 
	C1185.893066,1512.125244 1185.041870,1511.795532 1184.463989,1511.732788 
	C1188.767700,1500.367188 1199.326904,1496.522827 1208.606323,1491.195435 
	C1213.386475,1488.451050 1218.399292,1486.112549 1223.183472,1483.374878 
	C1235.698486,1476.213867 1248.287354,1469.165161 1260.568604,1461.618774 
	C1268.401001,1456.806152 1275.774658,1451.238770 1283.288208,1445.916748 
	C1295.257202,1437.439087 1307.536865,1429.343750 1319.000366,1420.225708 
	C1329.524048,1411.855103 1339.330811,1402.545166 1349.104126,1393.280640 
	C1357.873291,1384.968140 1366.621826,1376.549316 1374.537598,1367.445312 
	C1381.795044,1359.098389 1387.991089,1349.819824 1394.540283,1340.867920 
	C1403.208130,1329.020386 1409.742188,1315.958862 1415.074341,1302.373779 
	C1419.847412,1290.213135 1422.619263,1277.532715 1424.196045,1264.449463 
	C1426.133911,1248.370728 1424.115356,1232.887085 1418.835205,1217.947388 
	C1415.636353,1208.896851 1410.708618,1200.381836 1405.930298,1191.983154 
	C1398.990356,1179.785156 1389.086182,1170.148438 1377.633301,1162.175659 
	C1370.490723,1157.203491 1363.368652,1152.032837 1355.657349,1148.083984 
	C1342.228760,1141.207520 1327.670654,1137.448486 1312.804199,1135.005737 
	C1296.360107,1132.303833 1280.458008,1134.805176 1264.653442,1139.577271 
	C1254.843384,1142.539307 1244.741333,1144.537231 1234.757324,1146.913696 
	C1234.004517,1147.093018 1233.147949,1146.836792 1231.490601,1146.726685 
	C1232.689819,1144.487793 1233.266479,1142.342163 1234.638184,1141.023560 
	C1243.878540,1132.141235 1253.254028,1123.618164 1266.471313,1120.647705 
	C1277.264771,1118.221924 1287.746460,1114.420166 1298.527222,1111.922363 
	C1305.514404,1110.303589 1312.766968,1109.605713 1319.943604,1109.085205 
	C1329.188599,1108.414673 1338.488892,1107.860474 1347.742920,1108.106567 
	C1363.336426,1108.521118 1378.733643,1110.377441 1393.969238,1114.303833 
	C1409.127930,1118.210571 1423.134521,1124.347412 1436.762451,1131.842163 
	C1447.655518,1137.832886 1457.600586,1144.978638 1466.240601,1153.835938 
	C1473.235352,1161.006592 1480.702515,1167.980957 1486.305054,1176.174316 
	C1492.514771,1185.255371 1497.570190,1195.323120 1501.767700,1205.521362 
	C1505.266235,1214.021240 1506.788818,1223.333252 1509.229614,1232.273804 
	C1509.341309,1232.682983 1509.875366,1232.976685 1510.606445,1233.162109 
	C1511.000000,1246.687622 1511.000000,1260.375122 1511.000000,1274.531372 
z"/>
<path fill="#000000" opacity="1.000000" stroke="none" 
	d="
M890.468628,2049.000000 
	C890.967285,2048.334473 891.911194,2047.129639 892.905579,2047.086426 
	C903.667175,2046.619385 914.438538,2046.387451 925.203491,2045.987915 
	C942.075684,2045.361694 958.955444,2044.846680 975.811951,2043.920166 
	C987.975281,2043.251831 1000.104492,2041.972656 1012.251648,2040.999512 
	C1029.163818,2039.644409 1046.093750,2038.485718 1062.987793,2036.935181 
	C1078.689087,2035.494019 1094.382690,2033.882935 1110.024658,2031.909668 
	C1122.851318,2030.291748 1135.574463,2027.867676 1148.384399,2026.097778 
	C1164.297729,2023.898926 1180.281982,2022.204834 1196.178467,2019.898193 
	C1204.411499,2018.703613 1212.508667,2016.593872 1220.688721,2015.009033 
	C1236.390991,2011.966797 1252.163086,2009.260132 1267.801514,2005.923706 
	C1279.426880,2003.443359 1290.922974,2000.323242 1302.411865,1997.246216 
	C1316.704346,1993.418335 1331.085449,1989.819946 1345.144409,1985.249146 
	C1361.986816,1979.773438 1378.733521,1973.879028 1395.140747,1967.226685 
	C1409.683228,1961.330444 1424.039307,1954.775391 1437.873413,1947.380615 
	C1456.758301,1937.285767 1473.706665,1924.347412 1488.103394,1908.344482 
	C1497.066406,1898.381348 1503.960693,1887.143433 1508.059570,1874.284668 
	C1508.587402,1872.629395 1509.554199,1871.114014 1510.658813,1869.766968 
	C1511.000000,1929.634033 1511.000000,1989.268066 1511.000000,2049.000000 
	C1304.312500,2049.000000 1097.624878,2049.000000 890.468628,2049.000000 
z"/>
<path fill="#EA2D2E" opacity="1.000000" stroke="none" 
	d="
M1190.041870,436.114563 
	C1184.207886,439.742554 1178.385132,443.389008 1172.537109,446.994141 
	C1164.111206,452.188293 1155.645264,457.318024 1147.238892,462.543488 
	C1142.877808,465.254333 1138.634888,468.154327 1134.290039,470.891998 
	C1129.379028,473.986450 1124.409058,476.987213 1119.472900,480.042023 
	C1111.927612,484.711609 1104.332642,489.304596 1096.868530,494.100769 
	C1092.203735,497.098236 1087.788330,500.481171 1083.175293,503.562836 
	C1075.863892,508.447083 1068.440796,513.164734 1061.144775,518.071533 
	C1057.550537,520.488708 1054.149414,523.191650 1050.635498,525.730042 
	C1042.320557,531.736450 1033.942871,537.657104 1025.678467,543.731995 
	C1015.633667,551.115540 1005.531982,558.434631 995.733215,566.135681 
	C988.134399,572.107849 980.922119,578.576843 973.614014,584.912537 
	C967.664368,590.070557 961.751038,595.275818 955.960510,600.610779 
	C949.459839,606.600037 942.756531,612.429016 936.788757,618.922668 
	C928.343201,628.112427 919.914062,637.424194 912.545776,647.467285 
	C905.074280,657.651367 898.345764,668.484070 892.277283,679.572021 
	C880.369263,701.329590 874.226440,724.827454 877.334290,749.583008 
	C878.915833,762.180969 883.309692,774.560181 887.545410,786.648132 
	C890.931030,796.309814 895.535767,805.635132 900.455933,814.641785 
	C905.046692,823.045288 910.747620,830.844116 915.994385,838.886658 
	C920.733032,846.150085 925.385864,853.474915 930.321777,860.602783 
	C934.879272,867.184204 939.787598,873.521790 944.495483,880.000122 
	C949.371216,886.709351 954.245850,893.420593 959.015930,900.204834 
	C961.808777,904.176880 964.349792,908.324829 967.085266,912.338318 
	C974.538086,923.272766 979.957642,935.105591 984.455322,947.582275 
	C990.593079,964.608948 992.934692,982.110107 991.742920,999.865906 
	C990.930542,1011.969543 989.538330,1024.254028 984.249817,1035.659058 
	C980.461304,1043.828979 978.028198,1052.657104 973.928284,1060.646606 
	C966.747803,1074.638916 958.116150,1087.743408 947.409790,1099.426270 
	C939.232056,1108.349976 932.028687,1118.236328 923.345276,1126.608887 
	C912.949951,1136.632080 901.615479,1145.716675 890.357788,1154.798706 
	C881.956604,1161.576416 873.238647,1168.012329 864.282959,1174.037598 
	C855.057495,1180.244507 845.422485,1185.852539 835.846802,1191.520142 
	C834.015320,1192.604248 831.627136,1192.747803 828.305847,1193.647583 
	C829.463013,1191.667603 829.804810,1190.779053 830.397461,1190.114258 
	C839.057129,1180.399048 848.286377,1171.130493 856.252319,1160.879150 
	C861.833252,1153.697266 865.927002,1145.305176 870.263916,1137.227539 
	C873.903381,1130.449097 877.802246,1123.609619 880.031738,1116.321533 
	C883.397949,1105.317261 886.650513,1094.007446 887.646301,1082.625732 
	C888.613098,1071.575684 887.663696,1060.094727 885.707092,1049.132935 
	C884.054504,1039.874634 879.652283,1031.122681 876.655823,1022.084106 
	C873.869141,1013.678284 869.182800,1006.340515 864.012695,999.320801 
	C857.728455,990.788635 851.143921,982.475586 844.608276,974.131226 
	C839.189392,967.212646 833.448914,960.537415 828.217407,953.482605 
	C820.695496,943.338989 812.970764,933.281067 806.323608,922.571472 
	C799.523071,911.614868 793.886353,899.933105 787.806091,888.533569 
	C785.601501,884.400269 783.399841,880.247253 781.527161,875.958984 
	C778.079102,868.063354 774.223206,860.258972 771.733276,852.053589 
	C768.534363,841.511658 766.775635,830.542175 763.925842,819.882629 
	C759.463501,803.190491 759.593262,786.176880 760.132996,769.183655 
	C760.402588,760.695007 761.628723,752.168152 763.210815,743.807861 
	C765.052917,734.073364 767.166992,724.306885 770.269165,714.919861 
	C772.907166,706.937683 776.910278,699.372070 780.684326,691.809265 
	C784.888916,683.383423 789.246887,675.008789 794.044617,666.912109 
	C798.051941,660.149475 802.540588,653.632019 807.273438,647.350586 
	C812.145508,640.884399 817.419495,634.700745 822.797119,628.641479 
	C828.242737,622.505554 833.891357,616.533447 839.706543,610.746277 
	C845.781677,604.700439 851.897583,598.644897 858.465576,593.155823 
	C870.315063,583.252869 882.395813,573.615112 894.611145,564.165405 
	C902.354126,558.175415 910.363220,552.495789 918.531860,547.099121 
	C926.601013,541.768188 934.975098,536.890808 943.299500,531.956360 
	C952.382202,526.572449 961.553101,521.336914 970.701660,516.064636 
	C976.719360,512.596680 982.629944,508.907440 988.830994,505.801300 
	C998.041565,501.187714 1007.496216,497.064087 1016.790039,492.612976 
	C1022.933777,489.670532 1028.922974,486.403809 1035.082397,483.496185 
	C1040.651733,480.867126 1046.344360,478.496155 1052.007202,476.068817 
	C1060.441528,472.453491 1068.845947,468.760315 1077.359253,465.339630 
	C1085.438843,462.093262 1093.634277,459.133881 1101.792847,456.085541 
	C1114.859375,451.203430 1127.822510,446.008820 1141.041504,441.579437 
	C1155.668335,436.678375 1170.523071,432.453735 1185.300537,428.007751 
	C1191.205811,426.231079 1197.169922,424.650177 1203.619019,423.220093 
	C1203.087158,425.584503 1202.043457,427.708893 1200.999756,429.833252 
	C1200.999756,429.833252 1200.566406,429.977448 1200.012817,430.060791 
	C1198.653564,430.801025 1197.847778,431.457916 1197.041992,432.114807 
	C1196.276001,432.741608 1195.509888,433.368469 1194.071411,434.034088 
	C1192.279907,434.753418 1191.160889,435.433990 1190.041870,436.114563 
z"/>
<path fill="#0074BD" opacity="1.000000" stroke="none" 
	d="
M498.470703,1636.748047 
	C513.536987,1639.279541 528.210327,1641.743774 542.919617,1643.970093 
	C554.427185,1645.711792 565.977722,1647.170898 577.513733,1648.721680 
	C578.986328,1648.919678 580.490112,1648.872559 581.973389,1649.006226 
	C596.394592,1650.305786 610.813477,1651.630859 625.235352,1652.922852 
	C629.669678,1653.320190 634.105225,1653.769165 638.550415,1653.965210 
	C648.151794,1654.388916 657.757751,1654.745361 667.365479,1654.981445 
	C683.635132,1655.381348 699.907593,1655.929810 716.178772,1655.926758 
	C732.783386,1655.923584 749.419800,1655.854980 765.982971,1654.843384 
	C781.218628,1653.912720 796.370361,1651.643677 811.568359,1650.052734 
	C822.036377,1648.957153 832.574890,1648.396362 842.985046,1646.915894 
	C861.615906,1644.266113 880.166504,1641.057007 898.764465,1638.170044 
	C912.517761,1636.035278 926.322693,1634.219482 940.046936,1631.917236 
	C948.257751,1630.539795 956.345947,1628.442017 964.517700,1626.810669 
	C965.963684,1626.521973 967.832458,1626.431885 969.027588,1627.102783 
	C981.230408,1633.952271 993.160522,1641.306396 1005.522278,1647.847900 
	C1014.904358,1652.812866 1024.835327,1656.732422 1034.455200,1661.258911 
	C1040.337769,1664.026855 1045.978760,1667.328369 1051.935791,1669.912109 
	C1059.642578,1673.255005 1067.574219,1676.076538 1075.366821,1679.227173 
	C1077.084717,1679.921753 1078.625244,1681.054932 1081.717163,1682.829956 
	C1076.149048,1685.146362 1071.982788,1686.964111 1067.754272,1688.622437 
	C1056.277466,1693.123413 1044.916138,1697.976196 1033.249634,1701.922974 
	C1013.810303,1708.499146 994.289978,1714.898682 974.574890,1720.577881 
	C958.282715,1725.271118 941.757874,1729.286377 925.158264,1732.749512 
	C905.002258,1736.954834 884.713196,1740.600708 864.379395,1743.847900 
	C850.126648,1746.123657 835.725586,1747.567139 821.348633,1748.940918 
	C807.563538,1750.258057 793.731689,1751.131470 779.906372,1751.968140 
	C766.204712,1752.797241 752.489258,1753.433594 738.772827,1753.975098 
	C726.839600,1754.446289 714.889832,1755.083984 702.959290,1754.894653 
	C687.407593,1754.647827 671.858276,1753.822998 656.325684,1752.936523 
	C643.162292,1752.185181 629.987427,1751.328369 616.885681,1749.896484 
	C605.004272,1748.597900 593.203735,1746.529907 581.387451,1744.674316 
	C567.656860,1742.517822 553.935486,1740.295776 540.237183,1737.944824 
	C536.061462,1737.228149 531.931396,1736.143066 527.855225,1734.967285 
	C508.444580,1729.367310 488.968018,1723.970703 469.693756,1717.931030 
	C453.146454,1712.745728 437.599426,1705.121460 422.760773,1696.167603 
	C412.435516,1689.937134 402.786865,1682.555054 395.602386,1672.879150 
	C385.074066,1658.699707 384.536102,1644.263794 396.016998,1629.536743 
	C405.133087,1617.843384 417.490234,1610.059570 430.623932,1604.083618 
	C445.548767,1597.292725 461.175720,1592.030029 476.590851,1586.356689 
	C478.000305,1585.838013 480.087708,1587.161377 481.860352,1587.629517 
	C480.803436,1589.079834 479.892609,1590.669556 478.664612,1591.956665 
	C472.994995,1597.898438 466.484070,1602.994263 465.820404,1612.416870 
	C465.340302,1619.233276 470.109833,1623.022583 473.929382,1625.520020 
	C481.260101,1630.313232 489.960846,1633.011108 498.470703,1636.748047 
z"/>
<path fill="#0074BD" opacity="1.000000" stroke="none" 
	d="
M694.070190,1254.000000 
	C711.269287,1253.329224 727.981262,1252.693970 744.689758,1251.976929 
	C758.902832,1251.367065 773.128174,1250.902344 787.318176,1249.934937 
	C802.427002,1248.904907 817.492493,1247.252075 832.593262,1246.083374 
	C840.345032,1245.483398 848.150818,1245.573608 855.899902,1244.950562 
	C870.000854,1243.816772 884.073547,1242.336670 898.166138,1241.092163 
	C907.032654,1240.309204 915.933960,1239.884766 924.783508,1238.954834 
	C938.003479,1237.565552 951.188599,1235.845947 964.394958,1234.323486 
	C968.972046,1233.795898 973.575134,1233.495850 978.154785,1232.987793 
	C987.619446,1231.937622 997.087585,1230.904419 1006.532410,1229.693359 
	C1012.212769,1228.964966 1017.832886,1227.767578 1023.513245,1227.039429 
	C1034.905884,1225.578979 1046.325195,1224.326782 1057.726074,1222.928467 
	C1065.207642,1222.010986 1072.690430,1221.083496 1080.147217,1219.987793 
	C1088.896973,1218.702393 1097.618530,1217.226562 1106.353394,1215.839478 
	C1118.634155,1213.889282 1130.925659,1212.004639 1143.194336,1209.981567 
	C1156.262695,1207.826416 1169.304077,1205.507568 1182.371826,1203.348755 
	C1184.448853,1203.005615 1186.603027,1203.128784 1189.424194,1204.187622 
	C1188.313354,1205.270386 1187.386108,1206.723022 1186.063477,1207.379150 
	C1171.797241,1214.458374 1157.329346,1221.144775 1143.206543,1228.495361 
	C1134.008911,1233.282471 1125.299072,1239.004639 1116.350708,1244.273926 
	C1106.548828,1250.046143 1097.059692,1255.790405 1085.219849,1257.704468 
	C1069.324707,1260.273926 1053.872192,1265.463257 1038.073364,1268.783936 
	C1022.725281,1272.009766 1007.190857,1274.361816 991.718079,1276.978271 
	C971.714111,1280.360718 951.721741,1283.833740 931.662842,1286.860474 
	C919.817505,1288.648071 907.853516,1289.649536 895.942688,1291.002441 
	C878.484436,1292.985474 861.028381,1294.987915 843.565918,1296.933350 
	C839.473206,1297.389282 835.359802,1297.662842 831.254028,1297.997070 
	C814.999817,1299.320801 798.747986,1300.676392 782.488892,1301.937500 
	C772.617981,1302.703247 762.744202,1303.524292 752.855774,1303.948608 
	C740.093506,1304.496216 727.311035,1304.559570 714.544983,1305.038208 
	C700.328796,1305.571289 686.124268,1306.410034 671.909119,1306.977539 
	C660.642090,1307.427246 649.368713,1307.847900 638.094727,1307.970459 
	C599.828430,1308.386841 561.561096,1308.755249 523.293152,1308.937866 
	C512.689819,1308.988403 502.079559,1308.417603 491.478973,1307.975586 
	C477.597260,1307.396729 463.722046,1306.661987 449.843994,1305.995239 
	C435.966125,1305.328369 422.059570,1305.017944 408.218018,1303.901367 
	C392.992126,1302.672852 377.830536,1300.660156 362.631317,1299.081909 
	C357.709961,1298.570801 352.739319,1298.520142 347.824036,1297.967285 
	C335.595520,1296.591553 323.378143,1295.108887 311.171356,1293.551270 
	C302.721588,1292.473145 294.250610,1291.456787 285.871277,1289.954468 
	C271.240234,1287.331543 256.544525,1284.883179 242.113403,1281.382446 
	C226.949890,1277.704346 211.736313,1273.752197 197.162277,1268.275757 
	C185.417969,1263.862915 173.469376,1258.620117 166.367676,1246.947754 
	C163.626816,1242.442749 165.073334,1231.310425 168.164062,1227.308105 
	C176.844833,1216.067261 189.310669,1210.129639 201.203964,1203.606934 
	C210.118439,1198.717896 219.862015,1195.337280 229.249054,1191.314331 
	C233.569275,1189.462891 237.934433,1187.716187 242.253372,1185.861816 
	C250.154999,1182.469116 257.944122,1178.791260 265.955109,1175.683105 
	C273.378510,1172.803101 281.032043,1170.516968 288.581238,1167.960327 
	C298.302551,1164.667725 307.942444,1161.106445 317.763367,1158.145020 
	C326.785706,1155.424683 336.014679,1153.395508 345.127411,1150.967163 
	C351.122986,1149.369751 357.001007,1147.259766 363.058472,1145.978760 
	C381.106384,1142.161987 399.128082,1138.088013 417.328796,1135.165405 
	C434.490601,1132.409668 451.824829,1130.427490 469.160004,1129.134033 
	C487.150238,1127.791870 505.232483,1127.681885 523.275269,1127.054321 
	C523.718811,1127.039062 524.171021,1127.273193 525.837280,1127.711182 
	C523.866089,1128.759277 522.797791,1129.585327 521.592041,1129.928467 
	C509.848083,1133.270264 498.076141,1136.513550 486.321960,1139.819702 
	C472.552368,1143.692749 458.766785,1147.512085 445.035797,1151.518066 
	C431.610962,1155.434692 418.147339,1159.261353 404.889221,1163.691284 
	C395.815369,1166.723389 387.086426,1170.778076 378.161774,1174.269531 
	C372.118103,1176.633911 365.741333,1178.294800 359.976837,1181.192017 
	C350.098816,1186.156860 340.610168,1191.892090 330.905548,1197.207886 
	C325.069183,1200.404785 320.120392,1204.420166 316.095642,1209.863525 
	C311.985565,1215.422241 311.705139,1219.250610 316.453156,1223.959351 
	C325.287720,1232.720947 336.415009,1236.576294 348.273499,1239.077148 
	C355.612183,1240.624878 362.756195,1243.160522 370.125824,1244.481323 
	C380.606415,1246.359863 391.182373,1247.834839 401.774445,1248.934326 
	C420.107391,1250.837524 438.479980,1252.367188 456.844635,1253.952637 
	C462.768707,1254.464111 468.716309,1254.843628 474.659637,1254.965942 
	C495.094543,1255.386719 515.531433,1255.872437 535.969177,1255.955933 
	C573.962341,1256.110962 611.957886,1256.180420 649.949707,1255.908447 
	C664.497498,1255.804321 679.037903,1254.666626 694.070190,1254.000000 
z"/>
<path fill="#0074BD" opacity="1.000000" stroke="none" 
	d="
M418.047607,1383.109131 
	C416.037811,1387.537476 413.660370,1391.840820 412.101654,1396.422607 
	C409.561066,1403.890503 411.704865,1410.177734 417.244141,1415.916016 
	C426.497467,1425.501709 438.057526,1429.734619 450.719299,1432.105347 
	C458.739716,1433.606934 466.627991,1435.832397 474.662659,1437.233276 
	C480.476807,1438.247070 486.442688,1438.362427 492.325745,1439.015137 
	C503.584412,1440.264282 514.825623,1441.672607 526.087708,1442.888428 
	C531.007019,1443.419434 535.959412,1443.646362 540.897705,1443.998535 
	C559.487305,1445.324097 578.076172,1446.659790 596.667786,1447.957153 
	C602.436035,1448.359741 608.209351,1448.896118 613.984741,1448.957275 
	C652.586548,1449.366577 691.190918,1449.999634 729.791443,1449.840820 
	C746.446411,1449.772095 763.098999,1448.060791 779.744019,1446.964966 
	C793.233948,1446.076782 806.747620,1445.336548 820.183838,1443.903564 
	C834.852356,1442.339233 849.431580,1439.955933 864.073181,1438.115845 
	C873.691833,1436.906982 883.397217,1436.336792 892.983826,1434.934326 
	C911.606873,1432.209961 930.160950,1429.017578 948.768311,1426.180908 
	C961.078674,1424.304321 973.464417,1422.909424 985.754822,1420.918457 
	C993.979248,1419.585938 1002.083008,1417.522949 1010.264038,1415.904419 
	C1017.135071,1414.545044 1024.022339,1413.238281 1030.947266,1412.210693 
	C1032.059326,1412.045654 1033.617432,1413.240479 1034.612305,1414.183350 
	C1045.058105,1424.083374 1056.459839,1432.705200 1068.879517,1439.964355 
	C1077.553955,1445.034424 1086.111206,1450.355835 1095.072632,1454.866089 
	C1101.128784,1457.914185 1107.804810,1459.725220 1114.182617,1462.144775 
	C1115.180542,1462.523438 1116.066650,1463.196411 1117.133545,1465.037231 
	C1112.582031,1466.356812 1108.039307,1467.708130 1103.472656,1468.973145 
	C1102.375000,1469.277222 1101.165771,1469.172241 1100.062744,1469.463379 
	C1083.044922,1473.954712 1066.093750,1478.713623 1049.008057,1482.927979 
	C1034.131836,1486.597656 1019.130737,1489.776123 1004.140442,1492.963013 
	C986.401001,1496.734741 968.685547,1500.693848 950.825684,1503.801758 
	C935.657959,1506.441162 920.282349,1507.864746 905.032288,1510.059570 
	C895.316162,1511.457886 885.692200,1513.506470 875.968994,1514.842407 
	C868.310791,1515.894531 860.548340,1516.162598 852.860779,1517.031982 
	C842.593689,1518.192871 832.356506,1519.617554 822.100403,1520.879272 
	C820.620239,1521.061401 819.101257,1520.901733 817.608215,1521.009644 
	C799.516968,1522.316040 781.428528,1523.661621 763.336243,1524.954102 
	C757.568542,1525.366211 751.794250,1525.896851 746.018677,1525.955811 
	C706.083557,1526.364258 666.146179,1526.979248 626.211914,1526.839966 
	C610.223694,1526.784180 594.236450,1525.063110 578.258179,1523.963379 
	C565.434143,1523.080933 552.584839,1522.340576 539.819336,1520.895874 
	C527.458923,1519.497070 515.196838,1517.240967 502.881104,1515.432373 
	C490.238464,1513.575562 477.544800,1512.032471 464.947784,1509.910889 
	C457.389465,1508.637939 449.927490,1506.695557 442.502716,1504.747192 
	C426.597534,1500.573242 410.689209,1496.391235 394.899323,1491.808838 
	C389.123993,1490.132812 383.635406,1487.416260 378.094666,1484.994385 
	C364.123810,1478.887939 350.476837,1472.025024 339.303040,1461.505127 
	C330.410522,1453.133179 324.172516,1439.568848 329.104401,1426.294312 
	C333.305267,1414.987305 341.070038,1406.947998 350.399200,1400.497192 
	C360.740112,1393.346802 371.724426,1387.011841 382.884521,1381.196777 
	C392.217468,1376.333740 402.168213,1372.636353 411.924988,1368.616089 
	C416.247620,1366.834839 420.766815,1365.530518 425.763153,1364.186523 
	C426.187195,1365.829102 426.276489,1367.366089 425.852051,1368.744995 
	C425.082764,1371.244385 424.007477,1373.649780 423.059937,1376.094360 
	C423.059937,1376.094360 423.031372,1376.030640 422.703156,1376.079102 
	C418.575409,1376.993774 416.853577,1379.147827 418.047607,1383.109131 
z"/>
<path fill="#0073BD" opacity="1.000000" stroke="none" 
	d="
M423.362885,1375.950195 
	C424.007477,1373.649780 425.082764,1371.244385 425.852051,1368.744995 
	C426.276489,1367.366089 426.187195,1365.829102 426.140076,1364.128784 
	C428.783203,1363.051880 431.615814,1362.209473 434.448395,1361.367188 
	C434.696259,1361.853638 434.944122,1362.340210 435.192017,1362.826782 
	C432.816315,1368.365479 427.384827,1371.377808 423.362885,1375.950195 
z"/>
<path fill="#EA2C2E" opacity="1.000000" stroke="none" 
	d="
M1201.359131,429.892151 
	C1202.043457,427.708893 1203.087158,425.584503 1204.041260,423.175903 
	C1207.035645,421.757233 1210.119507,420.622742 1213.203491,419.488251 
	C1213.548218,420.072571 1213.893066,420.656921 1214.237793,421.241272 
	C1211.192139,425.523926 1206.016602,427.200653 1201.359131,429.892151 
z"/>
<path fill="#0073BD" opacity="1.000000" stroke="none" 
	d="
M418.343994,1382.938721 
	C416.853577,1379.147827 418.575409,1376.993774 422.734924,1376.093506 
	C421.610077,1378.295776 420.125244,1380.531982 418.343994,1382.938721 
z"/>
<path fill="#EA2C2E" opacity="1.000000" stroke="none" 
	d="
M1190.392212,436.066803 
	C1191.160889,435.433990 1192.279907,434.753418 1193.756592,434.057617 
	C1192.990479,434.701233 1191.866455,435.360138 1190.392212,436.066803 
z"/>
<path fill="#EA2C2E" opacity="1.000000" stroke="none" 
	d="
M1197.367432,432.060730 
	C1197.847778,431.457916 1198.653564,430.801025 1199.786743,430.093201 
	C1199.307129,430.697083 1198.499878,431.351837 1197.367432,432.060730 
z"/>
</svg>